<?xml version="1.0" standalone="no"?>
<!DOCTYPE svg PUBLIC "-//W3C//DTD SVG 20010904//EN"
 "http://www.w3.org/TR/2001/REC-SVG-20010904/DTD/svg10.dtd">
<svg version="1.0" xmlns="http://www.w3.org/2000/svg"
 width="512.000000pt" height="512.000000pt" viewBox="0 0 512.000000 512.000000"
 preserveAspectRatio="xMidYMid meet">

<g transform="translate(0.000000,512.000000) scale(0.100000,-0.100000)"
fill="#000000" stroke="none">
<path d="M305 4192 c-147 -51 -253 -164 -290 -308 -14 -54 -15 -211 -13 -1350
l3 -1289 22 -55 c46 -111 142 -207 253 -253 l55 -22 1290 -3 c857 -2 1306 1
1338 8 123 26 242 121 297 235 34 71 49 163 50 297 l0 87 89 27 89 26 779 782
c668 669 783 789 806 837 49 105 59 199 32 304 -71 275 -395 409 -645 268 -27
-16 -263 -243 -597 -577 l-553 -551 0 550 c0 303 -5 584 -10 625 -19 148 -110
275 -245 341 l-70 34 -1315 2 c-1227 2 -1318 1 -1365 -15z m2685 -143 c66 -31
121 -85 152 -148 22 -43 23 -61 26 -273 l3 -228 -1521 0 -1522 0 4 218 c6 239
13 277 69 345 36 44 105 86 168 103 36 10 327 12 1306 11 l1260 -2 55 -26z
m1816 -375 c114 -54 179 -161 172 -284 -5 -83 -32 -140 -107 -222 l-58 -63
-214 209 c-118 115 -215 212 -217 216 -5 12 117 119 160 141 84 43 177 44 264
3z m-309 -456 l213 -213 -627 -627 -628 -628 -212 212 -211 211 621 629 c341
345 623 628 626 628 3 0 102 -96 218 -212z m-1327 -331 l0 -372 -141 -140
c-77 -77 -149 -156 -158 -175 -17 -31 -66 -193 -177 -572 l-37 -128 -222 0
c-202 0 -225 -2 -246 -18 -27 -23 -30 -75 -5 -100 15 -15 46 -17 284 -17 l267
0 219 66 218 66 -4 -116 c-3 -95 -7 -124 -26 -162 -30 -63 -86 -117 -152 -148
l-55 -26 -1281 0 -1281 0 -69 35 c-73 37 -129 98 -155 168 -11 30 -14 222 -17
1025 l-3 987 1521 0 1520 0 0 -373z m147 -1203 c-9 -7 -489 -145 -495 -142 -4
1 24 113 64 248 40 135 73 247 73 250 1 3 82 -76 181 -175 98 -98 178 -180
177 -181z"/>
<path d="M395 3798 c-28 -16 -35 -28 -35 -64 0 -56 21 -64 167 -64 115 0 132
2 147 19 26 29 18 92 -14 108 -32 16 -237 17 -265 1z"/>
<path d="M827 3790 c-31 -25 -36 -63 -11 -98 14 -21 22 -22 148 -22 120 0 135
2 151 20 23 25 24 76 1 98 -13 14 -40 18 -139 20 -113 3 -124 2 -150 -18z"/>
<path d="M1275 3798 c-28 -16 -35 -28 -35 -64 0 -56 21 -64 168 -64 137 0 153
5 167 49 9 28 -12 70 -40 81 -36 14 -235 12 -260 -2z"/>
<path d="M2360 3803 c-41 -15 -55 -87 -22 -116 16 -15 52 -17 295 -17 264 0
278 1 297 20 25 25 26 61 1 91 l-19 24 -269 2 c-147 1 -275 -1 -283 -4z"/>
<path d="M3848 2673 c-346 -346 -348 -349 -312 -401 11 -16 25 -22 51 -22 33
0 54 19 357 326 176 179 325 335 330 345 14 30 -22 73 -65 77 -32 3 -49 -12
-361 -325z"/>
<path d="M1238 2802 c-100 -100 -138 -144 -138 -162 0 -17 37 -61 132 -157
115 -116 136 -133 164 -133 34 0 74 37 74 68 0 8 -46 62 -102 119 l-102 103
96 98 c52 53 98 105 102 115 7 22 -17 72 -39 81 -36 14 -55 1 -187 -132z"/>
<path d="M1866 2919 c-48 -38 -37 -63 74 -174 l100 -99 -100 -102 c-105 -106
-115 -127 -84 -172 10 -15 25 -22 47 -22 27 0 50 18 164 132 111 111 133 138
133 162 0 25 -22 52 -133 163 -85 85 -140 133 -154 133 -11 0 -32 -9 -47 -21z"/>
<path d="M1668 2913 c-16 -19 -140 -470 -140 -511 0 -50 64 -80 105 -49 17 13
147 470 147 519 0 50 -79 78 -112 41z"/>
<path d="M556 2139 c-32 -25 -35 -70 -6 -99 20 -20 33 -20 1104 -20 l1085 0
21 27 c25 32 20 69 -12 96 -19 16 -86 17 -1093 17 -1070 0 -1072 0 -1099 -21z"/>
<path d="M556 1809 c-26 -20 -35 -61 -18 -85 21 -32 53 -34 479 -34 489 0 477
-2 471 73 -2 33 -8 44 -28 54 -19 10 -129 13 -451 13 -416 0 -427 0 -453 -21z"/>
<path d="M1835 1805 c-32 -31 -32 -59 0 -91 l25 -25 376 3 c359 3 376 4 390
22 23 31 17 72 -12 95 -26 20 -38 21 -391 21 l-364 0 -24 -25z"/>
<path d="M550 1480 c-26 -26 -26 -72 1 -96 20 -18 40 -19 284 -19 244 0 264 1
284 19 27 24 27 70 1 96 -19 19 -33 20 -285 20 -252 0 -266 -1 -285 -20z"/>
<path d="M1370 1480 c-24 -24 -26 -72 -5 -94 25 -24 65 -27 318 -24 237 3 239
3 258 27 24 30 24 52 -2 85 l-20 26 -265 0 c-251 0 -265 -1 -284 -20z"/>
</g>
</svg>
